<svg xmlns="http://www.w3.org/2000/svg" width="45.1" height="35" viewBox="0 0 45.1 35"><defs><style>.cls-1{fill:none;}.cls-2{fill:#d84012;}.cls-3{fill:#002fa6;}.cls-4{fill:#fff;fill-rule:evenodd;}</style></defs><g id="Layer_2" data-name="Layer 2"><g id="audio"><rect class="cls-1" width="45.1" height="35"/><g id="Orange_BG" data-name="Orange BG"><path class="cls-2" d="M32.9,6.58v24A4.43,4.43,0,0,1,29.14,35h0a4.44,4.44,0,0,1-.63,0h-24A4.43,4.43,0,0,1,.05,30.57v-24A4.36,4.36,0,0,1,.63,4.39,4.42,4.42,0,0,1,4.48,2.15h24a4.44,4.44,0,0,1,4.22,3.07A4.35,4.35,0,0,1,32.9,6.58Z"/></g><g id="Blue_BG" data-name="Blue BG"><path class="cls-3" d="M35.05,4.4V28.16a4.39,4.39,0,0,1-3.73,4.34h0c-.2,0-.41,0-.62,0H6.89A4.4,4.4,0,0,1,2.5,28.16V4.4A4.4,4.4,0,0,1,6.89,0H30.66a4.42,4.42,0,0,1,4.39,4.4Z"/></g><path class="cls-4" d="M20.62,16.65h0v-.4l0-4.45c0-.43,0-.86,0-1.3a3.68,3.68,0,0,0-.16-1.19,1.58,1.58,0,0,0-2.75-.41,22.1,22.1,0,0,1-1.9,2c-.54.5-1.1,1-1.65,1.45a2.21,2.21,0,0,1-1.6.58h-.63c-.22,0-.45,0-.67,0a1.52,1.52,0,0,0-1.41,1.56c0,1.23,0,2.46,0,3.68,0,.29,0,.57,0,.85a1.47,1.47,0,0,0,1.26,1.46,7.32,7.32,0,0,0,.81,0,4.9,4.9,0,0,0,.54,0,2.35,2.35,0,0,1,1.82.6c.56.49,1.14,1,1.69,1.46a17.47,17.47,0,0,1,1.87,1.88,1.54,1.54,0,0,0,.72.51,1.58,1.58,0,0,0,2.09-1.31,8.24,8.24,0,0,0,.07-1c0-.41,0-.83-.05-1.25C20.69,19.79,20.66,18.22,20.62,16.65Z"/><path class="cls-4" d="M28.2,15.29a8.24,8.24,0,0,0-2.89-5c-.1-.08-.19-.2-.35-.2s-.14.19-.2.29l-.57.86a4,4,0,0,1,.29.28l.26.25a7.05,7.05,0,0,1,2,4.61,6.17,6.17,0,0,1-1.24,4.17c-.3.4-.66.76-1,1.15l-.19.23a13,13,0,0,0,.81,1.18,6.81,6.81,0,0,0,.89-.78A8.28,8.28,0,0,0,28.2,15.29Z"/><path class="cls-4" d="M25.21,16a4.87,4.87,0,0,0-1.94-3.34,8.76,8.76,0,0,0-.77,1.2l.19.22.2.24a3.71,3.71,0,0,1,.7,3.33,4,4,0,0,1-.68,1.31l-.34.48a13.23,13.23,0,0,0,.85,1.16A5.21,5.21,0,0,0,25.21,16Z"/></g></g></svg>