<svg xmlns="http://www.w3.org/2000/svg" width="45.1" height="35" viewBox="0 0 45.1 35"><defs><style>.cls-1{fill:none;}.cls-2{fill:#d84012;}.cls-3{fill:#002fa6;}.cls-4{fill:#fff;}</style></defs><g id="Layer_2" data-name="Layer 2"><g id="speaking"><rect class="cls-1" width="45.1" height="35"/><g id="Orange_BG" data-name="Orange BG"><path class="cls-2" d="M32.9,6.58v24A4.43,4.43,0,0,1,29.14,35h0a4.44,4.44,0,0,1-.63,0h-24A4.43,4.43,0,0,1,.05,30.57v-24A4.36,4.36,0,0,1,.63,4.39,4.42,4.42,0,0,1,4.48,2.15h24a4.44,4.44,0,0,1,4.22,3.07A4.35,4.35,0,0,1,32.9,6.58Z"/></g><g id="Blue_BG" data-name="Blue BG"><path class="cls-3" d="M35.05,4.4V28.16a4.39,4.39,0,0,1-3.73,4.34h0c-.2,0-.41,0-.62,0H6.89A4.4,4.4,0,0,1,2.5,28.16V4.4A4.4,4.4,0,0,1,6.89,0H30.66a4.42,4.42,0,0,1,4.39,4.4Z"/></g><g id="Shape_498" data-name="Shape 498"><path class="cls-4" d="M15.48,17.17a4.64,4.64,0,1,0-4.63-4.63A4.63,4.63,0,0,0,15.48,17.17Zm6.91,9.11L22.34,26c-.37-1.61-1.5-5.42-2.23-6.35-1-1.82-3.83-1.73-3.83-1.73H14a4.1,4.1,0,0,0-3.29,1.64c-.64.92-1.63,4.47-2.05,6.25-.07.27-.1.44-.1.44a.92.92,0,0,0,.93,1.2h12A.9.9,0,0,0,22.39,26.28Z"/></g><g id="Shape_501" data-name="Shape 501"><path class="cls-4" d="M22.67,13.05a1,1,0,0,0-1.08.88,1.11,1.11,0,0,0,2.16,0A1,1,0,0,0,22.67,13.05Zm2.78-7.28c-2.29,0-4.14,1.5-4.14,3.35s1.85,3.35,4.14,3.35S29.6,11,29.6,9.12,27.74,5.77,25.45,5.77Z"/></g></g></g></svg>